<?xml version="1.0" encoding="UTF-8"?><svg id="uuid-c32cf1b2-b6f6-4d21-81d7-475504166d20" xmlns="http://www.w3.org/2000/svg" width="220" height="220" viewBox="0 0 220 220"><rect x="35" y="1.27" width="150" height="217.47" rx="28.67" ry="28.67" style="fill:#c02026; stroke-width:0px;"/><path d="m154.08,6.52c14.16,0,25.67,11.52,25.67,25.67v155.62c0,14.16-11.52,25.67-25.67,25.67h-88.17c-14.16,0-25.67-11.52-25.67-25.67V32.19c0-14.16,11.52-25.67,25.67-25.67h88.17m0-3h-88.17c-15.84,0-28.67,12.84-28.67,28.67v155.62c0,15.84,12.84,28.67,28.67,28.67h88.17c15.84,0,28.67-12.84,28.67-28.67V32.19c0-15.84-12.84-28.67-28.67-28.67h0Z" style="fill:#fff; stroke-width:0px;"/><path d="m69.67,30.42c3.05.39,8.3,1.25,13.21-1.55,0,0,0,0,0,0,1.28-1.23,2.77-2.96,2.29-4.16-.57-1.43-3.64-1.23-7.76-1.22-13.9.03-17.22-2.14-22.05,1.1-.52.35-3.94,2.64-3.47,4.29.58,2.03,6.22.07,17.77,1.56Z" style="fill:#fff; stroke-width:0px;"/><path d="m56.34,56.43c7.79,2.25,14.5-.36,24.35-4.38,2.73-1.11,12.7-5.17,12.21-6.98-.26-.95-3.32-1-10.98-.36-16.72,1.38-33.56,2.78-33.83,6.56-.16,2.29,5.84,4.47,8.25,5.16Z" style="fill:#fff; stroke-width:0px;"/><path d="m72.8,81.12c13.89-4.6,20.84-6.91,20.58-8.88-.47-3.54-21.95-2.15-33.85-.48-6.71.94-12.28,2.25-13.82,6.2-.78,2.01-.63,4.9.95,6.67,1.22,1.36,4.64,3.61,26.14-3.52Z" style="fill:#fff; stroke-width:0px;"/><path d="m107.35,29.49c.46,1.79.92,3.88,1.25,6.38.15,1.17.25,2.28.31,3.35-8.01.79-11.9,1.98-13.17,5.15-.9,2.24-.53,5.57.97,6.41,1.71.96,4.34-1.62,7.78-3.5,1.43-.78,2.72-1.28,4.47-1.65-.19,4.27-.63,7.41.02,9.57-3.45.47-6,.71-7.14.47-.45-.1-1.73-.37-2.58.32-1.75,1.43.91,4.85-.18,10.51-.17.89-.57,2.55-1.04,5.38-.41,2.47-.37,2.83-.23,3.14.95,2.2,6.5,1.72,10.88,1.45,19.16-1.18,28.75-1.77,31.11-1.54,1.08.1,4.17.46,5.87-1.36.83-.89.92-1.98,1.09-2.36,4.75-10.6,13.24-14.86,11.96-17.76-.41-.94-1.64-1.26-2.54-1.45-7.37-1.61-17.88-.86-27.73.37,1.04-1.74,1.94-4.24,2.51-8.78,11.56-.87,14.59-1.16,19.34-2.45,4.8-1.3,11.9-3.77,11.67-4.96-.25-1.29-8.94-.06-27.13,1.24-1.17.08-2.3.16-3.4.24.06-1.2.1-2.47.13-3.87.04-2.43.03-4.68,0-7.04,3.91.05,6.96.14,12.32-1.07,6.01-1.36,14.57-4.26,14.3-5.84-.32-1.88-12.9.1-26.7,1.85-.05-2.41-.12-4.43-.17-5.95.18-.03-5.09-.09-7.27,1.47-1.44,1.03-1.6,2.85-1.27,5.51-2.16.23-4.28.43-6.35.6-.05-1.27-.36-2.48-1.25-3.35-1.97-1.93-6.42-1.8-8.39.32-.85.92-1.02,2-.84,3.4-1.61-.05-3.08-.16-4.37-.35-1.26-.19-5.56-.92-7.42,1.34-1.16,1.41-1.41,4.06-.31,5.59,1.74,2.43,6.08.94,13.5-.8Zm33.46,31.97c.83,1.54-.37,3.92-1.59,5.22-1.67,1.76-3.85,2.01-7.1,2.32-14.83,1.42-11.71.37-19.14,1.01-2.89.25-6.08.64-6.83-.78-.27-.52-.04-.96.45-3.71.59-3.32.36-3.3.64-3.72,1.31-1.97,5.26-.5,11.82-.57,3.63-.04,2.89-.49,9-.93,7.78-.56,11.7-.81,12.76,1.16Zm-16.57-8.52c-2.52.35-4.95.72-7.23,1.06-.02-2.3-.59-5.42-1.06-9.25,1.41-.12,3.01-.24,4.88-.39,1.41-.11,2.73-.21,3.98-.3-.16,3.55-.55,6.74-.57,8.88Zm.56-14.84c-3.48.22-6.6.41-9.37.59-.15-3.3-.06-6.95.53-10.91,2.29-.35,4.77-.65,7.44-.84.02,0,.03,0,.05,0,.53,3.02,1.15,6.73,1.36,11.16Z" style="fill:#fff; stroke-width:0px;"/><path d="m173.09,96.39c-1.4-3.43-5.33-5.15-9.43-6.71-1.73-.66-4.67-1.77-7.35-2.16,3.01-.35,7.19-1.27,11.17-3.72.25-.15,5.69-3.54,5.09-5.1-.27-.69-1.64-.79-2.39-.8-5.74-.1-16.71,1.31-26.11,2.68-.11-.06-.23-.11-.36-.14-.13-.04-1.6-.09-4.53-.18-1.98-.07-2.06-.05-2.18,0-.5.23-.76.75-.89,1.52-2.82.43-5.17.8-6.73,1.02-.54.08-1.06.15-1.56.22-.33-2.84-1.04-5.12-2.3-5.8-1.04-.55-3.09-.9-4.83-.09,0,0-1.04.35-1.83,1.49-.51.74-.77,2.96-.91,5.51-.86.05-1.74.08-2.68.1-2.27.05-4.34-.02-6.24-.12-.1-.09-.2-.17-.32-.23-1.41-.87-3.53-.85-5.11-.13-4.54-.31-7.6-.3-9.5,1.93-.89,1.05-2.62,3.88-1.74,6.52.29.86.78,1.49,1.16,1.88,2.82-.77,5.5-1.4,8.01-1.92-.2,3.53-.96,8.98-2.79,17.58,5.31,1.62,11.5,2.98,12.87.78.46-.74.18-1.58-.11-2.81-1.11-4.74.17-4.8-.43-13.69-.09-1.29-.17-2.44-.26-3.47,2.22-.3,4.21-.52,5.94-.67.36-.03.72-.06,1.07-.1,0,2.44.06,4.3.06,4.3.2,6.33.3,9.5,0,10.45-.16.51-.54,1.6-.1,2.72.83,2.15,3.94,2.65,4.35,2.72.52.08,3.32.54,4.35-.91.74-1.04.21-2.56,0-3.26-1.12-3.75.5-5.62,1.27-12.51.15-1.35.25-2.84.29-4.36,3.11-.23,5.92-.42,8.42-.57.25,2.32.51,5.03.53,8.01.06,8.55-1.91,11.38.36,13.6,2.54,2.49,8.31,2.16,9.79-.18.71-1.12.32-2.53.18-3.08-1.56-6.01-1.13-13.4-1.28-18.83,4.23-.16,6.32-.16,6.32-.16h.02c-.49.19-.93.47-1.26.86-1.18,1.42-1.05,4.14.18,5.44.86.91,1.99.85,3.63,1.09,2.53.37,6.05,1.01,8.16,3.26,1.79,1.92,3.01,5.52,1.9,7.89-.3.65-.85,1.36-.58,1.74.29.41,1.29.06,2.75-.29,4-.94,4.97-.27,5.94-1.3.7-.75.73-1.76.77-3.75.03-1.71.05-4.12-.82-6.27Z" style="fill:#fff; stroke-width:0px;"/><path d="m91.33,131.42c-7.87-1.23-11.78-.03-23.53,1.03-9.95.9-13.41.6-14.56,3.05-.9,1.93-.63,6.14,1.77,8.84.04.05.12.13.19.21,2.7,2.74,10.99.07,17.05-2.42,2.49-.88,6.32-2.17,11.05-3.54,9.63-2.78,15.07-3.59,15.03-4.86-.03-1.22-5.06-2.01-7.01-2.31Z" style="fill:#fff; stroke-width:0px;"/><path d="m59.61,156.12c-3.22.35-5.9.67-6.74,2.47-1.11,2.36,1.31,6.42,4.36,8.28,3.38,2.06,7.5,1.39,16.24-1.72,9.69-3.45,26.43-10.39,25.68-12.46-.28-.77-2.62.02-10.95.76-3.79.33-13.55,1.07-28.59,2.68Z" style="fill:#fff; stroke-width:0px;"/><path d="m96.38,173.46c-.33-.58-1.2-.94-9.82.38-16.97,2.59-20.1,4.94-28.15,6-.28.04-1.97.26-4,1.11-1.56.66-5.11,2.32-6.19,5.65-.24.75-.55,1.69,0,2.64,1.35,2.35,6.74,2.82,9.15,3.02.96.08,1.87.12,2.83.1,6.5-.1,11.66-1.2,13.17-1.57,2.45-.6,5.61-1.37,9.04-3.05,8.17-3.99,15.37-11.83,13.97-14.28Z" style="fill:#fff; stroke-width:0px;"/><path d="m170.01,118.84c-3.76-1.18-7.47-.15-11.16.75,0,0-4.35,1.06-8.28,1.81-1.12.21-2.17.35-3.95.57-18.03,2.22-25.3,2.92-25.3,2.92-1.93.19-4.4.42-7.25,1.81-2.81,1.38-4.62,3.22-5.5,4.24-2.46,2.83-3.42,5.76-3.82,7.37.97.12,2.41.15,3.88-.47,3.17-1.33,2.79-4.06,5.69-5.82,1.69-1.03,2.36-.43,9.22-1.1,2.98-.29,3.61-.59,5.58-.71-.21,1.29-.29,2.4-.3,3.25-.03,1.36.09,1.78-.09,2.96-.26,1.74-.73,2.27-1.13,4.18-.11.51-.2.94-.27,1.31-3.79.31-7.15.48-10.94.57-6.06.15-9.52-.03-10.95,2.27-1.47,2.36.98,4.44.97,10.51-.02,6.31-2.68,8.82-.97,11.02.93,1.19,2.55,1.54,7.93,1.51,3.72-.02,6.21-.03,8.87-.24-3.73,1.8-9.01,6.13-14.79,10.93-7.92,6.57-18.43,15.28-16.85,17.76,1.44,2.27,10.85-1.26,14.15-2.71,2.15-.94,5.6-2.49,9.03-5.72,2.81-2.65,2.56-3.57,5.72-6.62,3.9-3.78,5.85-3.57,7.22-6.32.11-.22.21-.45.3-.69.04.97.03,2-.07,3.1-.06.64-.21,2.21-.31,2.96-1.37,10.98-1.05,10.73-1.63,12.45-1.25,3.69-1.4,4.46-1.34,4.87.01.08.02.13.04.19.56,1.94,4.43,2.33,4.71,2.35,2.79.25,5.75-.99,7.69-3.16,1.76-1.97,2.19-4.15,2.42-5.41.79-4.28-.85-5.97-1.87-11.84-.91-5.22-.28-7.63-.59-9.64,2.67,2.67,6.51,6.39,10.67,11.65,2.72,3.43,3.76,5.23,4.55,6.94,2.05,4.45,1.39,6.15,3.08,7.68,3.53,3.19,12.76,1.5,14.4-2.89.96-2.58-.98-5.33-4.31-10.06-3.81-5.39-7.78-8.59-12.06-11.97-3.29-2.6-5.68-4.13-7.4-5.06,3.26.09,5.58-.16,8.56-2.2,1.04-.71,5.7-3.89,7.48-9.43.57-1.77.26-1.95,1.45-9.19.83-5.05,1.07-5.47.67-6.16-1.64-2.82-8.49-.45-20.74.99,0-.08-.01-.14-.06-.32-.58-2.31-1.57-4.02-1.69-4.22-.57-1-1.07-2.68-.7-5.64,1.76.08,2.99.17,3.38.2,12.78.98,13.13,1.93,17.47,1.13,7.63-1.4,9.97-4.97,10.42-5.71.31-.5,2.16-3.49.99-5.46-.43-.73-1.18-1.16-2.23-1.49Zm-19.42,27.8c1.71,2.14-.47,7.83-4.35,10.58-2.43,1.73-4.22,1.37-11.93,1.76-2.29.12-3.9.19-6.25.46-8.16.94-10.4,2.86-12.84,1.27-2.38-1.55-2.58-4.89-2.6-5.26-.02-.38-.12-3.54,1.98-5.09,1.02-.75,2.14-.82,2.56-.84,6.32-.37,12.63-1.08,18.95-1.43,9.72-.55,12.94-3.38,14.48-1.45Z" style="fill:#fff; stroke-width:0px;"/></svg>