<svg xmlns="http://www.w3.org/2000/svg" id="uuid-4d9d43d2-979e-49cc-8330-0a918279d126" width="160" height="220" viewBox="0 0 160 220"><metadata><rdf:RDF xmlns:rdf="http://www.w3.org/1999/02/22-rdf-syntax-ns#" xmlns:dc="http://purl.org/dc/elements/1.1/"><rdf:Description><dc:creator>RealFaviconGenerator</dc:creator><dc:source>https://realfavicongenerator.net</dc:source></rdf:Description></rdf:RDF></metadata><path d="m25.37,24.58c-.52.35-3.94,2.64-3.47,4.29.58,2.03,6.22.07,17.77,1.56,3.05.39,8.3,1.25,13.21-1.55,0,0,0,0,0,0,1.28-1.23,2.77-2.96,2.29-4.16-.57-1.43-3.64-1.23-7.76-1.22-13.9.03-17.22-2.14-22.05,1.1Z" style="fill:#c02026; stroke-width:0px;"></path><path d="m26.34,56.43c7.79,2.25,14.5-.36,24.35-4.38,2.73-1.11,12.7-5.17,12.21-6.98-.26-.95-3.32-1-10.98-.36-16.72,1.38-33.56,2.78-33.83,6.56-.16,2.29,5.84,4.47,8.25,5.16Z" style="fill:#c02026; stroke-width:0px;"></path><path d="m76.79,20.32c-2.43,2.62.62,6.45,1.81,15.56,1.58,12.07-1.99,18.92,2.02,21.63,1.18.8,3.16,1.34,4.67.58,4.67-2.35-1.94-13.81.75-30.79.34-2.14,1-5.48-.86-7.3-1.97-1.93-6.42-1.8-8.39.32Z" style="fill:#c02026; stroke-width:0px;"></path><path d="m16.66,84.64c1.22,1.36,4.64,3.61,26.14-3.52,13.89-4.6,20.84-6.91,20.58-8.88-.47-3.54-21.95-2.15-33.85-.48-6.71.94-12.28,2.25-13.82,6.2-.78,2.01-.63,4.9.95,6.67Z" style="fill:#c02026; stroke-width:0px;"></path><path d="m63.85,30.29c2.75,3.84,11.96-2.11,29.56-3.34,9.33-.65,12.05.65,20.48-1.25,6.01-1.36,14.57-4.26,14.3-5.84-.58-3.39-41.11,5.79-56.61,3.5-1.26-.19-5.56-.92-7.42,1.34-1.16,1.41-1.41,4.06-.31,5.59Z" style="fill:#c02026; stroke-width:0px;"></path><path d="m66.71,50.79c1.71.96,4.34-1.62,7.78-3.5,3.44-1.88,5.98-2.12,16.34-2.92,20.31-1.56,23.56-1.61,29.47-3.21,4.8-1.3,11.9-3.77,11.67-4.96-.25-1.29-8.94-.06-27.13,1.24-26.55,1.9-36.87,1.35-39.11,6.93-.9,2.24-.53,5.57.97,6.41Z" style="fill:#c02026; stroke-width:0px;"></path><path d="m128.72,53.47c-.41-.94-1.64-1.26-2.54-1.45-16.65-3.63-49.28,4.73-54.34,3.66-.45-.1-1.73-.37-2.58.32-1.75,1.43.91,4.85-.18,10.51-.17.89-.57,2.55-1.04,5.38-.41,2.47-.37,2.83-.23,3.14.95,2.2,6.5,1.72,10.88,1.45,19.16-1.18,28.75-1.77,31.11-1.54,1.08.1,4.17.46,5.87-1.36.83-.89.92-1.98,1.09-2.36,4.75-10.6,13.24-14.86,11.96-17.76Zm-19.5,13.22c-1.67,1.76-3.85,2.01-7.1,2.32-14.83,1.42-11.71.37-19.14,1.01-2.89.25-6.08.64-6.83-.78-.27-.52-.04-.96.45-3.71.59-3.32.36-3.3.64-3.72,1.31-1.97,5.26-.5,11.82-.57,3.63-.04,2.89-.49,9-.93,7.78-.56,11.7-.81,12.76,1.16.83,1.54-.37,3.92-1.59,5.22Z" style="fill:#c02026; stroke-width:0px;"></path><path d="m64.13,85.68c-.89,1.05-2.62,3.88-1.74,6.52.29.86.78,1.49,1.16,1.88,9.76-2.65,17.8-3.72,23.22-4.21,23.99-2.16,35.62-2.15,35.62-2.15,1.7,0,8.66.02,15.1-3.94.25-.15,5.69-3.54,5.09-5.1-.27-.69-1.64-.79-2.39-.8-9.55-.17-33.6,3.86-40.79,4.89-6.03.87-9.28,1.34-14.11,1.44-11.46.24-17.97-2.32-21.17,1.45Z" style="fill:#c02026; stroke-width:0px;"></path><path d="m88.89,78.62c-1.4,2.04-.98,15.47-.98,15.47.2,6.33.3,9.5,0,10.45-.16.51-.54,1.6-.1,2.72.83,2.15,3.94,2.65,4.35,2.72.52.08,3.32.54,4.35-.91.74-1.04.21-2.56,0-3.26-1.12-3.75.5-5.62,1.27-12.51.66-5.92.46-14.65-2.23-16.09-1.04-.55-3.09-.9-4.83-.09,0,0-1.04.35-1.83,1.49Z" style="fill:#c02026; stroke-width:0px;"></path><path d="m68.77,109.74c5.31,1.62,11.5,2.98,12.87.78.46-.74.18-1.58-.11-2.81-1.11-4.74.17-4.8-.43-13.69-.41-6.04-.64-9.09-2.36-10.15-1.99-1.23-5.42-.71-6.71,1.09-.83,1.16-.61,2.62-.54,3.08.38,2.81.07,8.65-2.72,21.7Z" style="fill:#c02026; stroke-width:0px;"></path><path d="m107.38,109.98c2.54,2.49,8.31,2.16,9.79-.18.71-1.12.32-2.53.18-3.08-2.71-10.45.59-25.11-3.63-26.28-.13-.04-1.6-.08-4.53-.18-1.98-.07-2.06-.05-2.18,0-2.17.98-.06,7.44,0,16.13.06,8.55-1.91,11.38.36,13.6Z" style="fill:#c02026; stroke-width:0px;"></path><path d="m143.14,106.41c.7-.75.73-1.76.77-3.75.03-1.71.05-4.12-.82-6.27-1.4-3.43-5.33-5.15-9.43-6.71-3.13-1.19-10.18-3.87-12.51-1.09-1.18,1.42-1.05,4.14.18,5.44.86.91,1.99.85,3.63,1.09,2.53.37,6.05,1.01,8.16,3.26,1.79,1.92,3.01,5.52,1.9,7.89-.3.65-.85,1.36-.58,1.74.29.41,1.29.06,2.75-.29,4-.94,4.97-.27,5.94-1.3Z" style="fill:#c02026; stroke-width:0px;"></path><path d="m94.04,17.24c2.18-1.56,7.45-1.5,7.27-1.47h0c.07,1.99.16,4.87.22,8.33.05,3.38.1,6.38.04,9.71-.25,13.33-1.98,17.29-4.02,19.9-.64.82-1.75,2.21-2.55,1.95-1.52-.48-.29-6.34-.13-13.1.36-14.67-4.59-22.63-.83-25.33Z" style="fill:#c02026; stroke-width:0px;"></path><path d="m23.25,135.5c-.9,1.93-.63,6.14,1.77,8.84.04.05.12.13.19.21,2.7,2.74,10.99.07,17.05-2.42,2.49-.88,6.32-2.17,11.05-3.54,9.63-2.78,15.07-3.59,15.03-4.86-.03-1.22-5.06-2.01-7.01-2.31-7.87-1.23-11.78-.03-23.53,1.03-9.95.9-13.41.6-14.56,3.05Z" style="fill:#c02026; stroke-width:0px;"></path><path d="m22.87,158.59c-1.11,2.36,1.31,6.42,4.36,8.28,3.38,2.06,7.5,1.39,16.24-1.72,9.69-3.45,26.43-10.39,25.68-12.46-.28-.77-2.62.02-10.95.76-3.79.33-13.55,1.07-28.59,2.68-3.22.35-5.9.67-6.74,2.47Z" style="fill:#c02026; stroke-width:0px;"></path><path d="m24.41,180.95c-1.56.66-5.11,2.32-6.19,5.65-.24.75-.55,1.69,0,2.64,1.35,2.35,6.74,2.82,9.15,3.02.96.08,1.87.12,2.83.1,6.5-.1,11.66-1.2,13.17-1.57,2.45-.6,5.61-1.37,9.04-3.05,8.17-3.99,15.37-11.83,13.97-14.28-.33-.58-1.2-.94-9.82.38-16.97,2.59-20.1,4.94-28.15,6-.28.04-1.97.26-4,1.11Z" style="fill:#c02026; stroke-width:0px;"></path><path d="m74.75,138.31c.4-1.6,1.36-4.54,3.82-7.37.88-1.01,2.69-2.86,5.5-4.24,2.85-1.4,5.32-1.63,7.25-1.81,0,0,7.27-.7,25.3-2.92,1.78-.22,2.82-.36,3.95-.57,3.94-.75,8.28-1.81,8.28-1.81,3.69-.9,7.4-1.93,11.16-.75,1.06.33,1.8.76,2.23,1.49,1.16,1.97-.69,4.96-.99,5.46-.45.73-2.79,4.3-10.42,5.71-4.34.8-4.69-.15-17.47-1.13-.98-.08-7.25-.54-14.05-.17-2.11.11-2.69.42-5.76.72-6.86.67-7.53.07-9.22,1.1-2.9,1.76-2.53,4.5-5.69,5.82-1.48.62-2.91.59-3.88.47Z" style="fill:#c02026; stroke-width:0px;"></path><path d="m97.61,140.6c.4-1.91.87-2.44,1.13-4.18.18-1.18.06-1.6.09-2.96.02-1.34.18-3.24.78-5.57,3.47.68,6.94,1.35,10.41,2.03-.44,3.13.08,4.87.67,5.9.11.2,1.11,1.9,1.69,4.22.04.18.06.24.06.32.05,2.89-13.37,6.39-15.08,3.57-.32-.53-.13-1.46.26-3.31Z" style="fill:#c02026; stroke-width:0px;"></path><path d="m60.6,196.23c1.44,2.27,10.85-1.26,14.15-2.71,2.15-.94,5.6-2.49,9.03-5.72,2.81-2.65,2.56-3.57,5.72-6.62,3.9-3.78,5.85-3.57,7.22-6.32,1.28-2.57,1.59-6.61-.12-7.83-2.82-2.01-10.43,4.21-19.14,11.44-7.92,6.57-18.43,15.28-16.85,17.76Z" style="fill:#c02026; stroke-width:0px;"></path><path d="m96.95,177.28c-.06.64-.21,2.21-.31,2.96-1.37,10.98-1.05,10.73-1.63,12.45-1.25,3.69-1.4,4.46-1.34,4.87.01.08.02.13.04.19.56,1.94,4.43,2.33,4.71,2.35,2.79.25,5.75-.99,7.69-3.16,1.76-1.97,2.19-4.15,2.42-5.41.79-4.28-.85-5.97-1.87-11.84-1.29-7.39.52-9.17-1.65-12.12-2.36-3.2-7.11-4.69-8.62-3.35-1.66,1.48,1.22,5.87.57,13.07Z" style="fill:#c02026; stroke-width:0px;"></path><path d="m102.36,164.69c-1.03,2.08,6.01,6.45,14.36,17,2.72,3.43,3.76,5.23,4.55,6.94,2.05,4.45,1.39,6.15,3.08,7.68,3.53,3.19,12.76,1.5,14.4-2.89.96-2.58-.98-5.33-4.31-10.06-3.81-5.39-7.78-8.59-12.06-11.97-6.41-5.07-9.42-6.09-10.69-6.46-2.8-.83-8.49-1.95-9.34-.24Z" style="fill:#c02026; stroke-width:0px;"></path><path d="m132.48,145.51c.83-5.05,1.07-5.47.67-6.16-1.64-2.82-8.49-.45-20.74.99-12.07,1.42-18.11,1.95-26.02,2.15-6.06.15-9.52-.03-10.95,2.27-1.47,2.36.98,4.44.97,10.51-.02,6.31-2.68,8.82-.97,11.02.93,1.19,2.55,1.54,7.93,1.51,5.61-.03,8.41-.04,13.22-.76,17.12-2.56,20.42,1.56,26.96-2.91,1.04-.71,5.7-3.89,7.48-9.43.57-1.77.26-1.95,1.45-9.19Zm-16.24,11.71c-2.43,1.73-4.22,1.37-11.93,1.76-2.29.12-3.9.19-6.25.46-8.16.94-10.4,2.86-12.84,1.27-2.38-1.55-2.58-4.89-2.6-5.26-.02-.38-.12-3.54,1.98-5.09,1.02-.75,2.14-.82,2.56-.84,6.32-.37,12.63-1.08,18.95-1.43,9.72-.55,12.94-3.38,14.48-1.45,1.71,2.14-.47,7.83-4.35,10.58Z" style="fill:#c02026; stroke-width:0px;"></path><path d="m126.33,7.27c12.5,0,22.67,10.17,22.67,22.67v160.12c0,12.5-10.17,22.67-22.67,22.67H33.67c-12.5,0-22.67-10.17-22.67-22.67V29.94c0-12.5,10.17-22.67,22.67-22.67h92.65m0-6H33.67C17.84,1.27,5,14.1,5,29.94v160.12c0,15.84,12.84,28.67,28.67,28.67h92.65c15.84,0,28.67-12.84,28.67-28.67V29.94c0-15.84-12.84-28.67-28.67-28.67h0Z" style="fill:#c02026; stroke-width:0px;"></path></svg>